<?xml version="1.0" encoding="UTF-8"?>
<svg xmlns="http://www.w3.org/2000/svg" xmlns:xlink="http://www.w3.org/1999/xlink" width="24px" height="24px" viewBox="0 0 24 24" version="1.1">
<g id="surface1">
<path style=" stroke:none;fill-rule:nonzero;fill:rgb(100%,100%,100%);fill-opacity:1;" d="M 9.65625 0.488281 C 8.230469 0.769531 5.550781 1.988281 4.96875 2.625 C 4.648438 2.980469 4.648438 3.039062 4.914062 3.300781 C 5.175781 3.5625 5.304688 3.523438 6.335938 2.851562 C 9.769531 0.617188 14.382812 0.675781 17.792969 2.945312 C 18.976562 3.75 19.011719 3.75 19.351562 3.414062 C 19.6875 3.074219 19.667969 3.054688 18.863281 2.476562 C 17.570312 1.539062 15.769531 0.769531 14.175781 0.46875 C 12.429688 0.132812 11.398438 0.132812 9.65625 0.488281 Z M 9.65625 0.488281 "/>
<path style=" stroke:none;fill-rule:nonzero;fill:rgb(100%,100%,100%);fill-opacity:1;" d="M 10.632812 1.914062 C 6.695312 2.476562 3.28125 5.664062 2.34375 9.601562 C 1.519531 13.125 2.53125 16.632812 5.136719 19.238281 C 6.695312 20.792969 8.195312 21.601562 10.425781 22.050781 C 15.132812 23.023438 20.136719 19.929688 21.65625 15.132812 C 22.820312 11.476562 21.882812 7.480469 19.257812 4.835938 C 18.039062 3.601562 16.164062 2.476562 14.625 2.082031 C 13.59375 1.820312 11.792969 1.742188 10.632812 1.914062 Z M 15.542969 4.3125 C 16.273438 4.648438 16.875 5.007812 16.875 5.082031 C 16.875 5.175781 16.292969 5.25 15.5625 5.25 L 14.25 5.25 L 14.25 7.875 L 13.5 7.875 C 12.882812 7.875 12.75 7.820312 12.75 7.5 C 12.75 7.179688 12.617188 7.125 12 7.125 L 11.25 7.125 L 11.25 7.875 C 11.25 8.625 11.25 8.625 11.980469 8.625 C 12.394531 8.625 12.75 8.53125 12.789062 8.417969 C 12.824219 8.289062 13.425781 8.269531 14.585938 8.363281 L 16.3125 8.492188 L 16.3125 9.113281 C 16.3125 9.617188 16.238281 9.75 15.9375 9.75 C 15.617188 9.75 15.5625 9.882812 15.5625 10.59375 L 15.5625 11.4375 L 16.3125 11.4375 C 17.0625 11.4375 17.0625 11.4375 17.0625 10.707031 C 17.0625 10.292969 16.988281 9.898438 16.875 9.84375 C 16.78125 9.789062 16.6875 9.320312 16.6875 8.792969 L 16.6875 7.875 L 14.625 7.875 L 14.625 5.625 L 17.773438 5.625 L 18.414062 6.414062 C 19.820312 8.175781 20.4375 9.804688 20.4375 11.71875 L 20.4375 12.957031 L 19.648438 12.898438 C 18.863281 12.84375 18.84375 12.824219 18.789062 12.148438 C 18.730469 11.550781 18.789062 11.457031 19.164062 11.398438 C 19.5 11.363281 19.613281 11.210938 19.648438 10.667969 C 19.707031 9.992188 19.707031 9.976562 18.9375 9.898438 C 18.507812 9.863281 18.132812 9.863281 18.074219 9.917969 C 17.925781 10.085938 18 11.230469 18.1875 11.34375 C 18.300781 11.398438 18.375 11.867188 18.375 12.394531 L 18.375 13.3125 L 19.40625 13.3125 C 19.96875 13.3125 20.4375 13.386719 20.4375 13.5 C 20.4375 13.613281 19.742188 13.6875 18.75 13.6875 L 17.082031 13.6875 L 17.023438 15.039062 L 16.96875 16.40625 L 16.273438 16.460938 C 15.675781 16.519531 15.582031 16.460938 15.523438 16.085938 C 15.488281 15.730469 15.335938 15.636719 14.773438 15.601562 L 14.0625 15.542969 L 14.0625 16.386719 C 14.0625 17.25 14.0625 17.25 14.699219 17.25 C 15.054688 17.25 15.414062 17.15625 15.46875 17.0625 C 15.523438 16.949219 15.992188 16.875 16.519531 16.875 L 17.4375 16.875 L 17.4375 14.042969 L 18.804688 14.101562 C 20.042969 14.15625 20.15625 14.195312 20.101562 14.53125 C 19.988281 15.148438 19.144531 16.726562 18.449219 17.550781 C 17.230469 19.050781 14.53125 20.4375 12.824219 20.4375 C 12.207031 20.4375 12.1875 20.417969 12.1875 19.6875 C 12.1875 19.070312 12.242188 18.9375 12.5625 18.9375 C 12.882812 18.9375 12.9375 18.804688 12.9375 18.1875 L 12.9375 17.4375 L 12.1875 17.4375 C 11.4375 17.4375 11.4375 17.4375 11.4375 18.167969 C 11.4375 18.582031 11.53125 18.976562 11.625 19.03125 C 11.738281 19.085938 11.8125 19.445312 11.8125 19.800781 C 11.8125 20.382812 11.773438 20.4375 11.25 20.4375 C 10.480469 20.4375 8.585938 19.78125 7.648438 19.199219 C 6.429688 18.414062 5.304688 17.136719 4.574219 15.65625 C 4.011719 14.511719 3.882812 14.023438 3.804688 12.695312 C 3.75 11.8125 3.75 10.875 3.824219 10.613281 C 3.9375 10.144531 3.992188 10.125 5.34375 10.125 L 6.75 10.125 L 6.75 11.53125 C 6.75 12.804688 6.789062 12.9375 7.125 12.9375 C 7.460938 12.9375 7.5 13.070312 7.5 14.4375 L 7.5 15.9375 L 10.3125 15.9375 L 10.3125 16.6875 C 10.3125 17.363281 10.273438 17.4375 9.84375 17.4375 C 9.429688 17.4375 9.375 17.511719 9.375 18.1875 L 9.375 18.9375 L 10.21875 18.9375 C 11.0625 18.9375 11.0625 18.9375 11.0625 18.300781 C 11.0625 17.945312 10.988281 17.585938 10.875 17.53125 C 10.78125 17.476562 10.6875 17.007812 10.6875 16.5 L 10.6875 15.582031 L 9.335938 15.523438 L 7.96875 15.46875 L 7.914062 14.210938 L 7.855469 12.9375 L 9 13.070312 L 10.125 13.179688 L 10.125 11.625 L 9.375 11.625 C 8.757812 11.625 8.625 11.679688 8.625 12 C 8.625 12.320312 8.492188 12.375 7.875 12.375 L 7.125 12.375 L 7.125 9.75 L 5.625 9.75 C 4.554688 9.75 4.125 9.675781 4.125 9.507812 C 4.125 8.980469 5.082031 7.273438 5.832031 6.488281 C 6.523438 5.71875 6.695312 5.625 7.425781 5.625 L 8.25 5.625 L 8.25 6.375 C 8.25 6.992188 8.195312 7.125 7.875 7.125 C 7.554688 7.125 7.5 7.257812 7.5 7.875 L 7.5 8.625 L 9.054688 8.625 L 8.925781 7.480469 C 8.867188 6.84375 8.8125 6.074219 8.8125 5.792969 C 8.8125 5.304688 8.757812 5.269531 8.023438 5.210938 L 7.21875 5.15625 L 7.761719 4.78125 C 8.0625 4.574219 8.867188 4.21875 9.542969 3.976562 C 10.574219 3.617188 11.0625 3.5625 12.488281 3.617188 C 13.929688 3.675781 14.398438 3.789062 15.542969 4.3125 Z M 8.625 7.894531 C 8.625 8.363281 8.007812 8.304688 7.914062 7.820312 C 7.875 7.59375 7.96875 7.5 8.230469 7.5 C 8.511719 7.5 8.625 7.613281 8.625 7.894531 Z M 12.28125 7.875 C 12.28125 8.023438 12.132812 8.175781 11.960938 8.210938 C 11.71875 8.25 11.625 8.15625 11.625 7.875 C 11.625 7.59375 11.71875 7.5 11.960938 7.539062 C 12.132812 7.574219 12.28125 7.726562 12.28125 7.875 Z M 16.6875 10.59375 C 16.6875 10.742188 16.519531 10.875 16.3125 10.875 C 16.105469 10.875 15.9375 10.742188 15.9375 10.59375 C 15.9375 10.445312 16.105469 10.3125 16.3125 10.3125 C 16.519531 10.3125 16.6875 10.445312 16.6875 10.59375 Z M 19.125 10.574219 C 19.125 10.96875 18.730469 11.15625 18.5625 10.855469 C 18.46875 10.726562 18.449219 10.539062 18.488281 10.460938 C 18.65625 10.199219 19.125 10.292969 19.125 10.574219 Z M 9.75 12.375 C 9.75 12.617188 9.617188 12.75 9.375 12.75 C 9.132812 12.75 9 12.617188 9 12.375 C 9 12.132812 9.132812 12 9.375 12 C 9.617188 12 9.75 12.132812 9.75 12.375 Z M 15.148438 16.367188 C 15.1875 16.59375 15.09375 16.6875 14.832031 16.6875 C 14.550781 16.6875 14.4375 16.574219 14.4375 16.292969 C 14.4375 15.824219 15.054688 15.882812 15.148438 16.367188 Z M 10.5 18.1875 C 10.5 18.582031 10.050781 18.710938 9.84375 18.375 C 9.695312 18.113281 9.898438 17.8125 10.238281 17.8125 C 10.386719 17.8125 10.5 17.980469 10.5 18.1875 Z M 12.5625 18.1875 C 12.5625 18.429688 12.429688 18.5625 12.1875 18.5625 C 11.832031 18.5625 11.679688 18.1875 11.945312 17.945312 C 12.1875 17.679688 12.5625 17.832031 12.5625 18.1875 Z M 12.5625 18.1875 "/>
<path style=" stroke:none;fill-rule:nonzero;fill:rgb(100%,100%,100%);fill-opacity:1;" d="M 2.4375 5.34375 C 1.238281 7.070312 0.375 9.84375 0.375 11.90625 C 0.375 13.96875 1.273438 16.800781 2.492188 18.601562 C 3.113281 19.539062 3.375 19.667969 3.730469 19.238281 C 3.898438 19.050781 3.75 18.710938 3.132812 17.792969 C 1.929688 15.992188 1.425781 14.230469 1.445312 11.8125 C 1.460938 9.523438 1.914062 7.929688 3.074219 6.113281 C 3.617188 5.25 3.710938 4.96875 3.542969 4.761719 C 3.207031 4.351562 3.054688 4.425781 2.4375 5.34375 Z M 2.4375 5.34375 "/>
<path style=" stroke:none;fill-rule:nonzero;fill:rgb(100%,100%,100%);fill-opacity:1;" d="M 20.644531 4.949219 C 20.476562 5.136719 20.585938 5.457031 21.09375 6.300781 C 22.460938 8.570312 23.007812 11.023438 22.667969 13.425781 C 22.425781 15.1875 22.070312 16.21875 21.167969 17.71875 C 20.457031 18.882812 20.417969 18.992188 20.699219 19.292969 C 21 19.574219 21.039062 19.554688 21.394531 19.125 C 22.59375 17.644531 23.8125 14.082031 23.8125 12.09375 C 23.8125 10.21875 22.988281 7.445312 21.9375 5.832031 C 21.167969 4.632812 21 4.519531 20.644531 4.949219 Z M 20.644531 4.949219 "/>
<path style=" stroke:none;fill-rule:nonzero;fill:rgb(100%,100%,100%);fill-opacity:1;" d="M 5.023438 20.757812 C 4.726562 21.039062 4.742188 21.09375 5.304688 21.523438 C 6.992188 22.78125 10.070312 23.8125 12.207031 23.8125 C 14.210938 23.8125 17.550781 22.667969 19.03125 21.488281 C 19.554688 21.054688 19.574219 21 19.273438 20.699219 C 18.992188 20.417969 18.898438 20.4375 17.867188 21.074219 C 17.25 21.449219 16.3125 21.9375 15.769531 22.144531 C 12.84375 23.25 9.019531 22.820312 6.429688 21.09375 C 5.886719 20.738281 5.417969 20.4375 5.382812 20.4375 C 5.363281 20.4375 5.195312 20.585938 5.023438 20.757812 Z M 5.023438 20.757812 "/>
</g>
</svg>
