<?xml version="1.0" encoding="UTF-8"?>
<svg version="1.1" viewBox="0 0 2048 2048" width="1280" height="1280" xmlns="http://www.w3.org/2000/svg">
<path transform="translate(600,179)" d="m0 0h1191l48 2 34 3 28 5 22 7 16 6 16 8 17 10 13 10 12 11 10 12 11 18 8 16 5 14 7 26 3 23 1 13v30l-3 31-7 43-7 37-28 136-7 36-7 31-8 40-8 36-9 45-7 32-10 48-9 42-10 48-12 59-7 31-9 45-9 42-11 52-15 72-8 38-14 66-24 114-11 48-10 36-8 25-7 20-11 27-14 29-9 16-10 16-11 16-9 11-12 14-10 9-7 7-10 8-12 9-20 12-21 11-25 10-31 10-37 8-27 4-33 3-17 1-32 1h-1152l-42-1-29-2-26-3-24-5-25-8-16-6-23-12-14-10-15-13-11-12-7-10-9-16-6-12-6-17-6-23-3-23-1-15v-20l3-34 6-39 12-63 13-64 9-42 13-63 15-70 19-90 38-182 18-86 16-76 14-67 32-152 19-91 12-54 8-32 9-30 10-29 10-25 14-29 9-15 10-16 14-19 9-10 12-13 13-13 11-9 10-8 17-11 17-10 26-12 27-9 31-8 30-5 28-3zm161 402-25 2-16 5-9 5-10 8-7 7-9 16-6 15-7 24-8 38-8 39-15 73-6 28-6 30-11 53-9 43-16 78-13 63-10 48-9 43-14 68-15 72-9 40-4 24v12l5 15 6 8 7 6 14 7 13 3 20 2h641l47-1 21-2 22-5 18-8 10-7 7-6 10-14 7-14 7-22 10-47 16-76 18-86 45-219 12-58 14-68 12-57 13-61 12-58 1-7v-16l-4-11-7-12-7-7-10-6-13-4-16-2-40-1z" fill="#FE1693"/>
<path transform="translate(1234,703)" d="m0 0h30l69 1 24 1 14 2 14 5 10 7 10 9 8 10 6 13 2 10v28l-4 32-7 35-12 57-10 46-10 48-10 47-5 17-4 6-7 2-176-1h-245l-2-2v-9l7-27 7-34 6-28 3-7 9-1h248l3-1 4-15 11-49 4-20 2-18v-8l-1-4-8-2-41-1h-190l-64 1-10 2-6 12-6 22-11 49-10 48-10 45-7 33-6 27-6 30-12 53-1 6v17l1 2 7 2 8 1 21 1 352 1 77 1 1 3-10 48-9 41-9 46-4 6-5 2h-49l-503-1-21-4-15-6-11-8-10-10-9-13-5-16-1-5v-26l8-43 18-86 15-70 13-63 12-58 22-103 7-30 10-29 8-15 9-14 9-10 9-9 19-13 18-8 23-5 28-2z" fill="#FE1693"/>
</svg>
